<svg width="37" height="22" viewBox="0 0 37 22" fill="none" xmlns="http://www.w3.org/2000/svg">
<path d="M2.9212 1H34.0725C35.1313 1 35.9937 1.70833 35.9937 2.57813V11H1V2.57813C1 1.70833 1.86232 1 2.9212 1Z" fill="white"/>
<path d="M1 11H36V19.4219C36 20.2917 35.1377 21 34.0788 21H2.9212C1.86232 21 1 20.2865 1 19.4219V11Z" fill="#D52B1E"/>
<path d="M1 7.66675H36V14.3334H1V7.66675Z" fill="#0039A6"/>
<path d="M2.9212 1H34.0725C35.1313 1 35.9937 1.70833 35.9937 2.57813V19.4167C35.9937 20.2865 35.1313 20.9948 34.0725 20.9948H2.9212C1.86232 20.9948 1 20.2812 1 19.4167V2.57813C1 1.70833 1.86232 1 2.9212 1Z" stroke="black" stroke-miterlimit="2.6131"/>
</svg>
