<svg width="35" height="20" viewBox="0 0 35 20" fill="none" xmlns="http://www.w3.org/2000/svg">
<path fill-rule="evenodd" clip-rule="evenodd" d="M1.9212 0H33.0725C34.1313 0 34.9937 0.708333 34.9937 1.57812V18.4167C34.9937 19.2812 34.1313 19.9896 33.0788 19.9948H1.91486C0.862319 20 0 19.2865 0 18.4219V1.57812C0 0.708333 0.862319 0 1.9212 0Z" fill="black"/>
<path fill-rule="evenodd" clip-rule="evenodd" d="M0 6.66675H35V18.422C35 19.2917 34.1377 20.0001 33.0788 20.0001H1.9212C0.862319 20.0001 0 19.2917 0 18.422V6.66675Z" fill="#DD0000"/>
<path fill-rule="evenodd" clip-rule="evenodd" d="M0 13.3333H35V18.4218C35 19.2864 34.1377 19.9947 33.0851 19.9999H1.9212C1.41218 19.9985 0.924484 19.8318 0.564552 19.5362C0.20462 19.2405 0.00167167 18.8399 0 18.4218L0 13.3333Z" fill="#FFCE00"/>
</svg>
